<svg width="89" height="31" viewBox="0 0 89 31" fill="none" xmlns="http://www.w3.org/2000/svg">
<path d="M19.375 7.75L11.625 15.5L19.375 23.25" stroke="black" stroke-width="2" stroke-linecap="round" stroke-linejoin="round"/>
<path d="M53.92 19.34C53.92 20.14 53.7133 20.8133 53.3 21.36C52.8867 21.8933 52.3267 22.3 51.62 22.58C50.9267 22.86 50.1667 23 49.34 23H42.48V8.8H50.08C50.7467 8.8 51.32 8.98 51.8 9.34C52.28 9.68667 52.6533 10.14 52.92 10.7C53.1867 11.26 53.32 11.8333 53.32 12.42C53.32 13.1133 53.1467 13.7667 52.8 14.38C52.4533 14.98 51.9467 15.4267 51.28 15.72C52.0933 15.96 52.7333 16.3933 53.2 17.02C53.68 17.6467 53.92 18.42 53.92 19.34ZM45.24 11.16V14.74H48.92C49.3733 14.74 49.7667 14.58 50.1 14.26C50.4333 13.94 50.6 13.5 50.6 12.94C50.6 12.4067 50.4467 11.98 50.14 11.66C49.8467 11.3267 49.48 11.16 49.04 11.16H45.24ZM51.14 18.82C51.14 18.3 50.98 17.8533 50.66 17.48C50.34 17.1067 49.9467 16.92 49.48 16.92H45.24V20.66H49.34C49.8467 20.66 50.2733 20.48 50.62 20.12C50.9667 19.76 51.14 19.3267 51.14 18.82ZM55.0938 19.9C55.0938 19.22 55.2804 18.6267 55.6538 18.12C56.0404 17.6 56.5738 17.2 57.2538 16.92C57.9338 16.64 58.7138 16.5 59.5938 16.5C60.0338 16.5 60.4804 16.54 60.9338 16.62C61.3871 16.6867 61.7804 16.7867 62.1138 16.92V16.36C62.1138 15.6933 61.9138 15.18 61.5138 14.82C61.1271 14.46 60.5471 14.28 59.7738 14.28C59.2004 14.28 58.6538 14.38 58.1338 14.58C57.6138 14.78 57.0671 15.0733 56.4938 15.46L55.6338 13.7C56.3271 13.2467 57.0338 12.9067 57.7538 12.68C58.4871 12.4533 59.2538 12.34 60.0538 12.34C61.5471 12.34 62.7071 12.7133 63.5338 13.46C64.3738 14.2067 64.7938 15.2733 64.7938 16.66V20C64.7938 20.2933 64.8404 20.5 64.9338 20.62C65.0271 20.7267 65.1938 20.7933 65.4338 20.82V23C65.1938 23.0533 64.9738 23.0867 64.7738 23.1C64.5871 23.1267 64.4271 23.14 64.2938 23.14C63.7604 23.14 63.3538 23.02 63.0738 22.78C62.7938 22.54 62.6271 22.2467 62.5738 21.9L62.5138 21.36C62.0471 21.96 61.4738 22.42 60.7938 22.74C60.1271 23.0467 59.4404 23.2 58.7338 23.2C58.0271 23.2 57.4004 23.06 56.8538 22.78C56.3071 22.4867 55.8738 22.0933 55.5538 21.6C55.2471 21.0933 55.0938 20.5267 55.0938 19.9ZM61.6138 20.44C61.9471 20.12 62.1138 19.8133 62.1138 19.52V18.46C61.4204 18.18 60.7204 18.04 60.0138 18.04C59.3071 18.04 58.7338 18.1933 58.2938 18.5C57.8538 18.7933 57.6338 19.1867 57.6338 19.68C57.6338 20.08 57.7938 20.44 58.1138 20.76C58.4338 21.08 58.8938 21.24 59.4938 21.24C59.8938 21.24 60.2804 21.1667 60.6538 21.02C61.0404 20.8733 61.3604 20.68 61.6138 20.44ZM72.1781 23.2C71.0448 23.2 70.0648 22.9467 69.2381 22.44C68.4115 21.9333 67.7715 21.2667 67.3181 20.44C66.8648 19.6133 66.6381 18.72 66.6381 17.76C66.6381 16.7867 66.8581 15.8867 67.2981 15.06C67.7515 14.2333 68.3915 13.5733 69.2181 13.08C70.0448 12.5867 71.0248 12.34 72.1581 12.34C73.3048 12.34 74.2781 12.5867 75.0781 13.08C75.8915 13.5733 76.4981 14.22 76.8981 15.02L74.2781 15.82C73.8115 15.02 73.0981 14.62 72.1381 14.62C71.6181 14.62 71.1515 14.7533 70.7381 15.02C70.3248 15.2733 69.9981 15.64 69.7581 16.12C69.5181 16.5867 69.3981 17.1333 69.3981 17.76C69.3981 18.3733 69.5181 18.92 69.7581 19.4C70.0115 19.8667 70.3448 20.24 70.7581 20.52C71.1715 20.7867 71.6315 20.92 72.1381 20.92C72.6181 20.92 73.0581 20.8067 73.4581 20.58C73.8715 20.34 74.1581 20.04 74.3181 19.68L76.9381 20.48C76.5781 21.2667 75.9781 21.92 75.1381 22.44C74.3115 22.9467 73.3248 23.2 72.1781 23.2ZM85.7472 23L82.6872 18.48L81.2672 19.88V23H78.5872V8.4H81.2672V17.24L85.4872 12.54H88.3272L84.4272 16.98L88.6072 23H85.7472Z" fill="black"/>
</svg>
